<svg xmlns="http://www.w3.org/2000/svg" version="1.0" width="513.000000pt" height="513.000000pt" viewBox="0 0 513.000000 513.000000" preserveAspectRatio="xMidYMid meet">

<g transform="translate(0.000000,513.000000) scale(0.100000,-0.100000)" fill="#61167e" stroke="none">
<path d="M4250 4215 c-182 -41 -464 -169 -657 -299 -384 -258 -718 -618 -884 -956 -117 -239 -145 -424 -94 -625 62 -247 143 -331 368 -385 199 -48 410 -12 891 152 212 72 321 93 356 69 25 -17 16 -85 -21 -159 -23 -45 -60 -94 -114 -148 -215 -217 -575 -373 -936 -406 -217 -20 -378 20 -476 119 -47 47 -58 51 -67 27 -11 -29 -6 -146 9 -203 21 -83 69 -193 109 -254 38 -57 133 -155 181 -187 120 -80 331 -96 578 -45 310 65 672 274 853 493 59 72 126 194 170 312 25 67 28 88 28 195 0 112 -2 126 -33 208 -95 252 -281 287 -806 152 -254 -65 -386 -70 -415 -15 -32 60 2 197 86 345 291 515 931 1163 1210 1226 171 38 159 -154 -29 -472 -184 -311 -424 -544 -617 -600 -25 -7 -49 -15 -53 -19 -13 -12 103 -109 168 -140 172 -84 416 -91 570 -15 50 24 156 122 196 180 75 111 162 337 193 505 24 126 31 273 17 370 -29 199 -85 354 -156 438 -43 50 -96 79 -215 117 -71 24 -106 29 -215 31 -88 2 -151 -1 -195 -11z"/>
<path d="M1800 3845 c-182 -41 -464 -169 -657 -299 -384 -258 -718 -618 -884 -956 -117 -239 -145 -424 -94 -625 62 -247 143 -331 368 -385 199 -48 410 -12 891 152 212 72 321 93 356 69 25 -17 16 -85 -21 -159 -23 -45 -60 -94 -114 -148 -215 -217 -575 -373 -936 -406 -217 -20 -378 20 -476 119 -47 47 -58 51 -67 27 -11 -29 -6 -146 9 -203 21 -83 69 -193 109 -254 38 -57 133 -155 181 -187 120 -80 331 -96 578 -45 310 65 672 274 853 493 59 72 126 194 170 312 25 67 28 88 28 195 0 112 -2 126 -33 208 -95 252 -281 287 -806 152 -254 -65 -386 -70 -415 -15 -32 60 2 197 86 345 291 515 931 1163 1210 1226 171 38 159 -154 -29 -472 -184 -311 -424 -544 -617 -600 -25 -7 -49 -15 -53 -19 -13 -12 103 -109 168 -140 172 -84 416 -91 570 -15 50 24 156 122 196 180 75 111 162 337 193 505 24 126 31 273 17 370 -29 199 -85 354 -156 438 -43 50 -96 79 -215 117 -71 24 -106 29 -215 31 -88 2 -151 -1 -195 -11z"/>
</g>
</svg>